<svg width="28" height="25" viewBox="0 0 28 25" fill="none" xmlns="http://www.w3.org/2000/svg">
<g clip-path="url(#clip0_254_12212)">
<path d="M13.1129 9.8C13.4529 9.50301 13.8569 9.274 14.3029 9.139L14.5499 9.07401L14.7099 9.044L14.8859 9.019L15.0659 9.004L15.2499 8.999H22.7499C23.5799 8.99894 24.3784 9.31641 24.9818 9.88631C25.5852 10.4562 25.9477 11.2354 25.9949 12.064L25.9999 12.249V19.749C26 20.5791 25.6824 21.3778 25.1122 21.9812C24.5421 22.5846 23.7627 22.947 22.9339 22.994L22.7499 22.999H15.2499C14.4198 22.9991 13.6211 22.6814 13.0177 22.1113C12.4143 21.5412 12.0519 20.7618 12.0049 19.933L11.9999 19.75V12.25L12.0029 12.101L12.0169 11.911L12.0429 11.72L12.0789 11.534L12.1379 11.311L12.2179 11.075L12.3049 10.873L12.3869 10.711L12.4809 10.548L12.6269 10.331L12.7209 10.208L12.8559 10.052L12.9639 9.94L13.1129 9.8ZM18.9999 12C18.8187 12 18.6436 12.0656 18.507 12.1848C18.3704 12.3039 18.2816 12.4685 18.2569 12.648L18.2499 12.75V15.249H15.7499C15.5687 15.249 15.3936 15.3146 15.257 15.4338C15.1204 15.5529 15.0316 15.7175 15.0069 15.897L14.9999 15.999C14.9999 16.379 15.2819 16.692 15.6479 16.742L15.7499 16.749H18.2499V19.25C18.2499 19.63 18.5319 19.944 18.8979 19.993L18.9999 20C19.1812 20 19.3563 19.9344 19.4929 19.8152C19.6294 19.6961 19.7183 19.5316 19.7429 19.352L19.7499 19.25V16.749H22.2499C22.4313 16.749 22.6065 16.6832 22.7431 16.5639C22.8798 16.4445 22.9685 16.2797 22.9929 16.1L22.9999 16C22.9999 15.8188 22.9343 15.6437 22.8152 15.5071C22.696 15.3705 22.5315 15.2817 22.3519 15.257L22.2499 15.25H19.7499V12.75C19.7499 12.5688 19.6843 12.3937 19.5652 12.2571C19.446 12.1205 19.2815 12.0317 19.1019 12.007L18.9999 12ZM19.5819 5.233L19.6339 5.41L20.3279 7.998H15.2499C14.6917 7.998 14.139 8.10797 13.6233 8.32161C13.1076 8.53526 12.639 8.8484 12.2444 9.24315C11.8497 9.63791 11.5367 10.1065 11.3231 10.6223C11.1096 11.138 10.9998 11.6908 10.9999 12.249V18.683C10.3497 18.6443 9.72618 18.4112 9.21002 18.0139C8.69385 17.6167 8.30886 17.0736 8.10492 16.455L8.05292 16.279L6.11192 9.03401C5.89692 8.23238 5.99676 7.37887 6.39095 6.6485C6.78514 5.91813 7.44382 5.36624 8.23192 5.106L8.40992 5.054L15.6539 3.113C16.4555 2.89801 17.3091 2.99784 18.0394 3.39203C18.7698 3.78622 19.3217 4.4449 19.5819 5.233Z" fill="#151B4C"/>
<path d="M13.9327 2.76115C13.5292 2.03584 12.8636 1.49236 12.0722 1.24216C11.2809 0.991971 10.4237 1.05402 9.67667 1.41559L2.92551 4.68236L2.76205 4.767L2.60656 4.85891L2.45902 4.95807L2.32806 5.05477L2.13404 5.22086C1.79137 5.53665 1.52745 5.91875 1.35076 6.33419L1.27762 6.52511L1.22919 6.67297L1.17561 6.8722L1.14457 7.02386L1.10767 7.28279L1.09405 7.47046L1.0908 7.652L1.10047 7.87172L1.13125 8.11901L1.17528 8.34544L1.22389 8.52855L1.28368 8.7118L1.35383 8.88893L1.41603 9.02436L4.68279 15.7755L4.767 15.9381C5.17031 16.6637 5.53613 17.0357 6.62746 17.4578C7.47838 17.6474 7.88578 17.6546 8.53613 17.4578L10 17M13.9327 2.76115L14.0178 2.9255M13.9327 2.76115L14.5 4" stroke="#151B4C"/>
</g>
<defs>
<clipPath id="clip0_254_12212">
<rect width="28" height="25" fill="white"/>
</clipPath>
</defs>
</svg>
