<svg width="32" height="32" viewBox="0 0 32 32" fill="none"
    xmlns="http://www.w3.org/2000/svg">
    <circle id="add-white" cx="16" cy="16" r="16" fill="currentColor"/>
    <path id="add-black" fill-rule="evenodd" clip-rule="evenodd" d="M22.223 15.1114H16.8896V9.77805C16.8896 9.28649 16.4914 8.88916 16.0008 8.88916C15.5101 8.88916 15.1119 9.28649 15.1119 9.77805V15.1114H9.77854C9.28787 15.1114 8.88965 15.5087 8.88965 16.0003C8.88965 16.4918 9.28787 16.8892 9.77854 16.8892H15.1119V22.2225C15.1119 22.7141 15.5101 23.1114 16.0008 23.1114C16.4914 23.1114 16.8896 22.7141 16.8896 22.2225V16.8892H22.223C22.7136 16.8892 23.1119 16.4918 23.1119 16.0003C23.1119 15.5087 22.7136 15.1114 22.223 15.1114Z" fill="currentColor"/>
    <mask id="mask0_225_12000" style="mask-type:alpha" maskUnits="userSpaceOnUse" x="8" y="8" width="16" height="16">
        <path id="add-white" fill-rule="evenodd" clip-rule="evenodd" d="M22.223 15.1114H16.8896V9.77805C16.8896 9.28649 16.4914 8.88916 16.0008 8.88916C15.5101 8.88916 15.1119 9.28649 15.1119 9.77805V15.1114H9.77854C9.28787 15.1114 8.88965 15.5087 8.88965 16.0003C8.88965 16.4918 9.28787 16.8892 9.77854 16.8892H15.1119V22.2225C15.1119 22.7141 15.5101 23.1114 16.0008 23.1114C16.4914 23.1114 16.8896 22.7141 16.8896 22.2225V16.8892H22.223C22.7136 16.8892 23.1119 16.4918 23.1119 16.0003C23.1119 15.5087 22.7136 15.1114 22.223 15.1114Z" fill="currentColor"/>
    </mask>
    <g mask="url(#mask0_225_12000)">
    </g>
</svg>
