<svg width="36" height="36" viewBox="0 0 36 36" fill="none" xmlns="http://www.w3.org/2000/svg">
<g id="27) Icon/chevron-down">
<path id="&#240;&#159;&#142;&#168; Icon &#208;&#161;olor" fill-rule="evenodd" clip-rule="evenodd" d="M17.9999 23.25C17.6159 23.25 17.2319 23.103 16.9394 22.8105L10.9394 16.8105C10.3529 16.224 10.3529 15.276 10.9394 14.6895C11.5259 14.103 12.4739 14.103 13.0604 14.6895L18.0179 19.647L22.9574 14.877C23.5559 14.3025 24.5024 14.319 25.0784 14.9145C25.6544 15.51 25.6379 16.461 25.0424 17.0355L19.0424 22.8285C18.7499 23.1105 18.3749 23.25 17.9999 23.25Z" fill="#223DFF"/>
<mask id="mask0_55_17340" style="mask-type:alpha" maskUnits="userSpaceOnUse" x="10" y="14" width="16" height="10">
<path id="&#240;&#159;&#142;&#168; Icon &#208;&#161;olor_2" fill-rule="evenodd" clip-rule="evenodd" d="M17.9999 23.25C17.6159 23.25 17.2319 23.103 16.9394 22.8105L10.9394 16.8105C10.3529 16.224 10.3529 15.276 10.9394 14.6895C11.5259 14.103 12.4739 14.103 13.0604 14.6895L18.0179 19.647L22.9574 14.877C23.5559 14.3025 24.5024 14.319 25.0784 14.9145C25.6544 15.51 25.6379 16.461 25.0424 17.0355L19.0424 22.8285C18.7499 23.1105 18.3749 23.25 17.9999 23.25Z" fill="white"/>
</mask>
<g mask="url(#mask0_55_17340)">
</g>
</g>
</svg>
