<svg width="21" height="22" viewBox="0 0 21 22" fill="none" xmlns="http://www.w3.org/2000/svg">
<path fill-rule="evenodd" clip-rule="evenodd" d="M8 11.8796V11C8 9.5451 9.12167 8.36112 10.5 8.36112H11.3333V5.42932C11.3333 5.10561 11.0842 4.8426 10.7775 4.8426H5.2225C4.91583 4.8426 4.66667 5.10561 4.66667 5.42932V11.2929C4.66667 11.6166 4.91583 11.8796 5.2225 11.8796H8ZM8 13.6389H5.2225C3.99667 13.6389 3 12.5869 3 11.2929V5.42932C3 4.13538 3.99667 3.08334 5.2225 3.08334H10.7775C12.0033 3.08334 13 4.13538 13 5.42932V8.36112H15.5C16.8783 8.36112 18 9.5451 18 11V16.2778C18 17.7327 16.8783 18.9167 15.5 18.9167H10.5C9.12167 18.9167 8 17.7327 8 16.2778V13.6389ZM9.66667 11C9.66667 10.5153 10.0408 10.1204 10.5 10.1204H15.5C15.96 10.1204 16.3333 10.5153 16.3333 11V16.2778C16.3333 16.7625 15.96 17.1574 15.5 17.1574H10.5C10.0408 17.1574 9.66667 16.7625 9.66667 16.2778V11Z" fill="#1C1C28"/>
<mask id="mask0_225_11629" style="mask-type:alpha" maskUnits="userSpaceOnUse" x="3" y="3" width="15" height="16">
<path fill-rule="evenodd" clip-rule="evenodd" d="M8 11.8796V11C8 9.5451 9.12167 8.36112 10.5 8.36112H11.3333V5.42932C11.3333 5.10561 11.0842 4.8426 10.7775 4.8426H5.2225C4.91583 4.8426 4.66667 5.10561 4.66667 5.42932V11.2929C4.66667 11.6166 4.91583 11.8796 5.2225 11.8796H8ZM8 13.6389H5.2225C3.99667 13.6389 3 12.5869 3 11.2929V5.42932C3 4.13538 3.99667 3.08334 5.2225 3.08334H10.7775C12.0033 3.08334 13 4.13538 13 5.42932V8.36112H15.5C16.8783 8.36112 18 9.5451 18 11V16.2778C18 17.7327 16.8783 18.9167 15.5 18.9167H10.5C9.12167 18.9167 8 17.7327 8 16.2778V13.6389ZM9.66667 11C9.66667 10.5153 10.0408 10.1204 10.5 10.1204H15.5C15.96 10.1204 16.3333 10.5153 16.3333 11V16.2778C16.3333 16.7625 15.96 17.1574 15.5 17.1574H10.5C10.0408 17.1574 9.66667 16.7625 9.66667 16.2778V11Z" fill="white"/>
</mask>
<g mask="url(#mask0_225_11629)">
</g>
</svg>
