<svg width="16" height="17" viewBox="0 0 16 17" fill="none" xmlns="http://www.w3.org/2000/svg">
<path d="M6.07528 6.69993C6.30195 6.50193 6.57128 6.34927 6.86861 6.25927L7.03328 6.21593L7.13995 6.19593L7.25728 6.17927L7.37728 6.16927L7.49995 6.16593H12.4999C13.0533 6.16589 13.5856 6.37753 13.9879 6.75747C14.3901 7.13741 14.6318 7.65685 14.6633 8.20927L14.6666 8.3326V13.3326C14.6667 13.886 14.4549 14.4185 14.0748 14.8208C13.6948 15.223 13.1752 15.4646 12.6226 15.4959L12.4999 15.4993H7.49995C6.94652 15.4993 6.41406 15.2876 6.01179 14.9075C5.60953 14.5274 5.36795 14.0078 5.33661 13.4553L5.33328 13.3333V8.33327L5.33528 8.23393L5.34461 8.10727L5.36195 7.97993L5.38595 7.85593L5.42528 7.70727L5.47861 7.54993L5.53661 7.41527L5.59128 7.30727L5.65395 7.1986L5.75128 7.05393L5.81395 6.97193L5.90395 6.86793L5.97595 6.79327L6.07528 6.7006V6.69993ZM9.99995 8.1666C9.87912 8.1666 9.76239 8.21036 9.67133 8.28978C9.58027 8.36919 9.52105 8.4789 9.50461 8.5986L9.49995 8.6666V10.3326H7.83328C7.71246 10.3326 7.59572 10.3764 7.50466 10.4558C7.4136 10.5352 7.35438 10.6449 7.33795 10.7646L7.33328 10.8326C7.33328 11.0859 7.52128 11.2946 7.76528 11.3279L7.83328 11.3326H9.49995V12.9999C9.49995 13.2533 9.68795 13.4626 9.93195 13.4953L9.99995 13.4999C10.1208 13.4999 10.2375 13.4562 10.3286 13.3768C10.4196 13.2973 10.4788 13.1876 10.4953 13.0679L10.4999 12.9999V11.3326H12.1666C12.2875 11.3326 12.4044 11.2887 12.4954 11.2092C12.5865 11.1296 12.6457 11.0198 12.6619 10.8999L12.6666 10.8333C12.6666 10.7124 12.6229 10.5957 12.5434 10.5046C12.464 10.4136 12.3543 10.3544 12.2346 10.3379L12.1666 10.3333H10.4999V8.6666C10.4999 8.54577 10.4562 8.42904 10.3768 8.33798C10.2974 8.24692 10.1876 8.1877 10.0679 8.17127L9.99995 8.1666ZM10.3879 3.65527L10.4226 3.77327L10.8853 5.4986H7.49995C7.12781 5.4986 6.75932 5.57191 6.41552 5.71434C6.07172 5.85677 5.75935 6.06553 5.49624 6.3287C5.23313 6.59187 5.02445 6.90429 4.8821 7.24812C4.73975 7.59196 4.66653 7.96046 4.66661 8.3326V12.6219C4.23316 12.5961 3.81746 12.4407 3.47334 12.1759C3.12923 11.911 2.87257 11.549 2.73661 11.1366L2.70195 11.0193L1.40795 6.18927C1.26462 5.65485 1.33117 5.08584 1.59397 4.59893C1.85676 4.11202 2.29588 3.74409 2.82128 3.5706L2.93995 3.53593L7.76928 2.24193C8.3037 2.0986 8.8727 2.16516 9.35962 2.42795C9.84653 2.69074 10.2145 3.12986 10.3879 3.65527Z" fill="#151B4C"/>
</svg>
