<svg width="20" height="20" viewBox="0 0 20 20" fill="none" xmlns="http://www.w3.org/2000/svg">
<path fill-rule="evenodd" clip-rule="evenodd" d="M8.33398 3.6061C8.33398 3.47693 8.51232 3.33276 8.75065 3.33276H11.2507C11.489 3.33276 11.6673 3.47693 11.6673 3.6061V4.99943H8.33398V3.6061ZM17.5003 4.99935H16.667H13.3337V3.60602C13.3337 2.53602 12.3995 1.66602 11.2503 1.66602H8.75033C7.60116 1.66602 6.66699 2.53602 6.66699 3.60602V4.99935H3.33366H2.50033C2.04199 4.99935 1.66699 5.37518 1.66699 5.83268C1.66699 6.29102 2.04199 6.66602 2.50033 6.66602H3.33366V15.8327C3.33366 17.2118 4.45533 18.3327 5.83366 18.3327H14.167C15.5453 18.3327 16.667 17.2118 16.667 15.8327V6.66602H17.5003C17.9587 6.66602 18.3337 6.29102 18.3337 5.83268C18.3337 5.37518 17.9587 4.99935 17.5003 4.99935Z" fill="currentColor"/>
<mask id="mask0_314_16610" style="mask-type:alpha" maskUnits="userSpaceOnUse" x="1" y="1" width="18" height="18">
<path fill-rule="evenodd" clip-rule="evenodd" d="M8.33398 3.6061C8.33398 3.47693 8.51232 3.33276 8.75065 3.33276H11.2507C11.489 3.33276 11.6673 3.47693 11.6673 3.6061V4.99943H8.33398V3.6061ZM17.5003 4.99935H16.667H13.3337V3.60602C13.3337 2.53602 12.3995 1.66602 11.2503 1.66602H8.75033C7.60116 1.66602 6.66699 2.53602 6.66699 3.60602V4.99935H3.33366H2.50033C2.04199 4.99935 1.66699 5.37518 1.66699 5.83268C1.66699 6.29102 2.04199 6.66602 2.50033 6.66602H3.33366V15.8327C3.33366 17.2118 4.45533 18.3327 5.83366 18.3327H14.167C15.5453 18.3327 16.667 17.2118 16.667 15.8327V6.66602H17.5003C17.9587 6.66602 18.3337 6.29102 18.3337 5.83268C18.3337 5.37518 17.9587 4.99935 17.5003 4.99935Z" fill="transparent"/>
</mask>
<g mask="url(#mask0_314_16610)">
</g>
</svg>
