<svg width="25" height="25" viewBox="0 0 25 25" fill="none" xmlns="http://www.w3.org/2000/svg">
<path fill-rule="evenodd" clip-rule="evenodd" d="M18.4662 7.22871L15.7722 4.53471L13.8242 6.48371L16.5192 9.17871L18.4662 7.22871ZM5.59087 18.4957C5.56087 18.4987 5.53087 18.4997 5.50087 18.4997C5.23687 18.4997 4.98187 18.3957 4.79287 18.2067C4.58387 17.9967 4.47787 17.7047 4.50387 17.4097L4.88287 13.2397C4.92487 12.7827 5.12687 12.3507 5.45287 12.0257L14.4489 3.02971C15.1509 2.32471 16.4239 2.35971 17.1649 3.09871L19.9029 5.83671L19.9039 5.83771C20.6689 6.6037 20.6999 7.82171 19.9719 8.55171L10.9749 17.5487C10.6499 17.8737 10.2189 18.0757 9.76087 18.1177L5.59087 18.4957ZM5.5 20.5H19.5C20.05 20.5 20.5 20.95 20.5 21.5C20.5 22.05 20.05 22.5 19.5 22.5H5.5C4.95 22.5 4.5 22.05 4.5 21.5C4.5 20.95 4.95 20.5 5.5 20.5Z" fill="#151B4C"/>
<mask id="mask0_379_2513" style="mask-type:alpha" maskUnits="userSpaceOnUse" x="4" y="2" width="17" height="21">
<path fill-rule="evenodd" clip-rule="evenodd" d="M18.4662 7.22871L15.7722 4.53471L13.8242 6.48371L16.5192 9.17871L18.4662 7.22871ZM5.59087 18.4957C5.56087 18.4987 5.53087 18.4997 5.50087 18.4997C5.23687 18.4997 4.98187 18.3957 4.79287 18.2067C4.58387 17.9967 4.47787 17.7047 4.50387 17.4097L4.88287 13.2397C4.92487 12.7827 5.12687 12.3507 5.45287 12.0257L14.4489 3.02971C15.1509 2.32471 16.4239 2.35971 17.1649 3.09871L19.9029 5.83671L19.9039 5.83771C20.6689 6.6037 20.6999 7.82171 19.9719 8.55171L10.9749 17.5487C10.6499 17.8737 10.2189 18.0757 9.76087 18.1177L5.59087 18.4957ZM5.5 20.5H19.5C20.05 20.5 20.5 20.95 20.5 21.5C20.5 22.05 20.05 22.5 19.5 22.5H5.5C4.95 22.5 4.5 22.05 4.5 21.5C4.5 20.95 4.95 20.5 5.5 20.5Z" fill="white"/>
</mask>
<g mask="url(#mask0_379_2513)">
</g>
</svg>
