<svg width="253" height="27" viewBox="0 0 253 27" fill="none" xmlns="http://www.w3.org/2000/svg">
<path fill-rule="evenodd" clip-rule="evenodd" d="M99.4824 23.1621C97.282 21.0919 96.1818 18.5484 96.1818 15.5614C96.1818 12.5743 97.282 10.0604 99.4824 7.99014C101.713 5.91989 104.403 4.88477 107.551 4.88477C110.698 4.88477 113.388 5.91989 115.588 7.99014C117.819 10.0604 118.919 12.5743 118.919 15.5614C118.919 18.5484 117.819 21.0919 115.619 23.1621C113.418 25.2028 110.729 26.238 107.551 26.238C104.403 26.238 101.713 25.2028 99.4824 23.1621ZM102.814 10.9476C101.53 12.2194 100.888 13.7573 100.888 15.5614C100.888 17.4246 101.53 18.9625 102.814 20.2342C104.097 21.4764 105.686 22.0974 107.551 22.0974C109.415 22.0974 110.973 21.4764 112.257 20.2046C113.571 18.9329 114.213 17.3654 114.213 15.5614C114.213 13.7573 113.571 12.2194 112.288 10.9476C111.004 9.67592 109.415 9.02527 107.551 9.02527C105.686 9.02527 104.097 9.67592 102.814 10.9476ZM76.3034 25.8239C76.5496 25.8239 76.7491 25.6308 76.7491 25.3926V15.1114C76.7491 14.7378 77.2066 14.5409 77.4933 14.7911L90.3076 25.9731C90.5943 26.2233 91.0518 26.0264 91.0518 25.6528V5.64137C91.0518 5.40318 90.8522 5.21009 90.6061 5.21009H86.8521C86.606 5.21009 86.4065 5.40318 86.4065 5.64137V15.9506C86.4065 16.3245 85.9485 16.5212 85.6619 16.2706L72.8483 5.0628C72.5618 4.81213 72.1038 5.00892 72.1038 5.38275V25.3926C72.1038 25.6308 72.3033 25.8239 72.5495 25.8239H76.3034ZM10.6535 25.3926C10.6535 25.6308 10.454 25.8239 10.2078 25.8239H6.39277C6.14662 25.8239 5.94708 25.6308 5.94708 25.3926V15.4647C5.94708 15.2241 6.14256 15.029 6.38369 15.029L14.657 15.029C15.2988 15.029 15.9406 14.822 16.5213 14.3784C17.1019 13.9347 17.4075 13.1954 17.4075 12.1898C17.4075 11.1842 17.1019 10.4744 16.5213 10.0308C15.9406 9.5872 15.2988 9.3506 14.657 9.3506H6.49379L5.94708 9.35083V9.34995H3.56907C3.35388 9.34995 3.14939 9.25626 3.00914 9.0934L0.0708738 5.68144C-0.0913116 5.49311 0.0427849 5.2017 0.291634 5.2017H7.19226C7.23026 5.2017 7.26759 5.20457 7.30404 5.21009H14.9321C16.7352 5.21009 18.3549 5.86074 19.8524 7.13247C21.3499 8.40419 22.114 10.09 22.114 12.1898C22.114 14.2009 21.3805 15.8571 19.9136 17.188C18.4466 18.5189 16.7963 19.1695 14.9321 19.1695H11.0992C10.8531 19.1695 10.6535 19.3626 10.6535 19.6008V25.3926ZM31.3249 25.8239C31.5711 25.8239 31.7706 25.6308 31.7706 25.3926V17.4418C31.7706 17.2036 31.9702 17.0105 32.2163 17.0105H40.5544C40.8006 17.0105 41.0001 17.2036 41.0001 17.4418V25.3926C41.0001 25.6308 41.1996 25.8239 41.4458 25.8239H45.2608C45.507 25.8239 45.7065 25.6308 45.7065 25.3926V5.64137C45.7065 5.40318 45.507 5.21009 45.2608 5.21009H41.4458C41.1996 5.21009 41.0001 5.40318 41.0001 5.64137V12.4387C41.0001 12.6769 40.8006 12.87 40.5544 12.87H32.2163C31.9702 12.87 31.7706 12.6769 31.7706 12.4387V5.64137C31.7706 5.40318 31.5711 5.21009 31.3249 5.21009H27.5099C27.2637 5.21009 27.0642 5.40318 27.0642 5.64137V25.3926C27.0642 25.6308 27.2637 25.8239 27.5099 25.8239H31.3249ZM66.1974 25.8239C66.4436 25.8239 66.6431 25.6308 66.6431 25.3926V22.1147C66.6431 21.8765 66.4436 21.6834 66.1974 21.6834H57.0342C56.788 21.6834 56.5885 21.4903 56.5885 21.2521V17.708C56.5885 17.4698 56.788 17.2767 57.0342 17.2767H65.3417C65.5879 17.2767 65.7874 17.0836 65.7874 16.8454V13.6562C65.7874 13.418 65.5879 13.2249 65.3417 13.2249H57.0342C56.788 13.2249 56.5885 13.0318 56.5885 12.7936V9.78188C56.5885 9.54369 56.788 9.3506 57.0342 9.3506H65.9835C66.2297 9.3506 66.4292 9.15751 66.4292 8.91932V5.64137C66.4292 5.40318 66.2297 5.21009 65.9835 5.21009H52.3277C52.0816 5.21009 51.8821 5.40318 51.8821 5.64137V25.3926C51.8821 25.6308 52.0816 25.8239 52.3277 25.8239H66.1974ZM128.145 25.8239C128.391 25.8239 128.59 25.6308 128.59 25.3926V16.487C128.59 16.0907 129.097 15.9042 129.369 16.2002L134.981 22.2978C135.158 22.4903 135.47 22.4903 135.647 22.2978L141.259 16.2002C141.531 15.9042 142.037 16.0907 142.037 16.487V25.3926C142.037 25.6308 142.237 25.8239 142.483 25.8239H146.115C146.361 25.8239 146.561 25.6308 146.561 25.3926V5.57856C146.561 5.18535 146.061 4.99725 145.786 5.28697L135.642 15.984C135.466 16.1703 135.162 16.1703 134.986 15.984L124.842 5.28697C124.567 4.99725 124.067 5.18535 124.067 5.57857V25.3926C124.067 25.6308 124.267 25.8239 124.513 25.8239H128.145Z" fill="#151B4C"/>
<path d="M169.834 13H168.193V8.62772C168.193 7.90149 168.073 7.36926 167.834 7.03102C167.596 6.69277 167.247 6.52365 166.79 6.52365C166.332 6.52365 165.904 6.69775 165.506 7.04594C165.118 7.38418 164.845 7.82688 164.686 8.37404V13H163.044V8.62772C163.044 7.90149 162.925 7.36926 162.686 7.03102C162.447 6.69277 162.104 6.52365 161.656 6.52365C161.199 6.52365 160.771 6.69277 160.373 7.03102C159.985 7.36926 159.707 7.81196 159.537 8.35911V13H157.896V5.19555H159.388V6.76241C159.697 6.21525 160.1 5.79743 160.597 5.50892C161.104 5.21048 161.681 5.06125 162.328 5.06125C162.975 5.06125 163.482 5.23037 163.85 5.56861C164.228 5.90686 164.462 6.32966 164.551 6.83702C164.89 6.26002 165.303 5.8223 165.79 5.52385C166.287 5.21545 166.854 5.06125 167.491 5.06125C167.949 5.06125 168.332 5.14581 168.64 5.31493C168.949 5.48405 169.187 5.71784 169.356 6.01629C169.526 6.30479 169.645 6.64303 169.715 7.03102C169.794 7.40905 169.834 7.81196 169.834 8.23973V13ZM175.411 13.1492C174.805 13.1492 174.252 13.0448 173.755 12.8359C173.268 12.617 172.845 12.3235 172.487 11.9554C172.128 11.5774 171.85 11.1496 171.651 10.6721C171.462 10.1846 171.367 9.66732 171.367 9.12016C171.367 8.38399 171.537 7.71247 171.875 7.10563C172.213 6.48883 172.686 5.99639 173.292 5.6283C173.899 5.25027 174.611 5.06125 175.426 5.06125C176.242 5.06125 176.943 5.25027 177.53 5.6283C178.127 5.99639 178.59 6.48386 178.918 7.09071C179.246 7.69755 179.411 8.34917 179.411 9.04555C179.411 9.16493 179.406 9.27933 179.396 9.38876C179.386 9.48825 179.376 9.57281 179.366 9.64245H173.113C173.143 10.1001 173.268 10.503 173.486 10.8512C173.715 11.1894 174.004 11.458 174.352 11.657C174.7 11.846 175.073 11.9405 175.471 11.9405C175.909 11.9405 176.322 11.8311 176.71 11.6122C177.108 11.3933 177.376 11.1048 177.515 10.7467L178.918 11.1496C178.749 11.5277 178.49 11.8709 178.142 12.1793C177.804 12.4777 177.401 12.7165 176.933 12.8955C176.466 13.0647 175.959 13.1492 175.411 13.1492ZM173.069 8.55311H177.784C177.754 8.10543 177.625 7.71247 177.396 7.37423C177.177 7.02604 176.894 6.75744 176.545 6.56842C176.207 6.36945 175.829 6.26997 175.411 6.26997C175.003 6.26997 174.625 6.36945 174.277 6.56842C173.939 6.75744 173.66 7.02604 173.442 7.37423C173.223 7.71247 173.098 8.10543 173.069 8.55311ZM185.168 12.5971C185.029 12.6667 184.855 12.7413 184.646 12.8209C184.437 12.9005 184.198 12.9702 183.93 13.0298C183.671 13.0895 183.403 13.1194 183.124 13.1194C182.786 13.1194 182.472 13.0597 182.184 12.9403C181.895 12.8209 181.662 12.6319 181.482 12.3733C181.313 12.1047 181.229 11.7614 181.229 11.3436V6.46396H180.199V5.19555H181.229V2.62889H182.87V5.19555H184.571V6.46396H182.87V10.8213C182.89 11.0899 182.975 11.2889 183.124 11.4182C183.283 11.5475 183.477 11.6122 183.706 11.6122C183.935 11.6122 184.154 11.5724 184.363 11.4928C184.571 11.4132 184.726 11.3486 184.825 11.2988L185.168 12.5971ZM185.887 10.7169C185.887 10.2194 186.027 9.7867 186.305 9.41861C186.594 9.04057 186.987 8.75207 187.484 8.55311C187.982 8.34419 188.559 8.23973 189.215 8.23973C189.563 8.23973 189.916 8.26461 190.275 8.31435C190.643 8.36409 190.966 8.44368 191.245 8.55311V8.06067C191.245 7.51351 191.08 7.08573 190.752 6.77733C190.424 6.46894 189.951 6.31474 189.334 6.31474C188.897 6.31474 188.484 6.39432 188.096 6.5535C187.708 6.70272 187.295 6.91661 186.857 7.19516L186.305 6.0909C186.823 5.74271 187.34 5.48405 187.857 5.31493C188.384 5.14581 188.937 5.06125 189.514 5.06125C190.558 5.06125 191.379 5.3398 191.976 5.89691C192.583 6.44407 192.886 7.22501 192.886 8.23973V11.1496C192.886 11.3386 192.916 11.4729 192.976 11.5525C193.045 11.6321 193.16 11.6769 193.319 11.6868V13C193.17 13.0298 193.035 13.0497 192.916 13.0597C192.797 13.0696 192.697 13.0746 192.617 13.0746C192.269 13.0746 192.006 12.9901 191.827 12.8209C191.647 12.6518 191.543 12.4528 191.513 12.224L191.468 11.7764C191.13 12.2141 190.697 12.5523 190.17 12.7911C189.643 13.0298 189.111 13.1492 188.573 13.1492C188.056 13.1492 187.594 13.0448 187.186 12.8359C186.778 12.617 186.459 12.3235 186.231 11.9554C186.002 11.5873 185.887 11.1745 185.887 10.7169ZM190.857 11.1944C190.976 11.0651 191.07 10.9357 191.14 10.8064C191.21 10.6771 191.245 10.5627 191.245 10.4632V9.56783C190.966 9.4584 190.673 9.37882 190.364 9.32907C190.056 9.26938 189.752 9.23954 189.454 9.23954C188.857 9.23954 188.37 9.35892 187.991 9.59768C187.623 9.83644 187.439 10.1647 187.439 10.5826C187.439 10.8114 187.499 11.0302 187.618 11.2391C187.748 11.4481 187.927 11.6172 188.156 11.7465C188.394 11.8758 188.688 11.9405 189.036 11.9405C189.394 11.9405 189.737 11.8709 190.066 11.7316C190.394 11.5923 190.658 11.4132 190.857 11.1944ZM196.943 13L193.974 5.19555H195.675L197.898 11.4779L200.122 5.19555H201.703L198.734 13H196.943ZM206.305 13.1492C205.698 13.1492 205.146 13.0448 204.649 12.8359C204.161 12.617 203.738 12.3235 203.38 11.9554C203.022 11.5774 202.743 11.1496 202.544 10.6721C202.355 10.1846 202.261 9.66732 202.261 9.12016C202.261 8.38399 202.43 7.71247 202.768 7.10563C203.107 6.48883 203.579 5.99639 204.186 5.6283C204.793 5.25027 205.504 5.06125 206.32 5.06125C207.136 5.06125 207.837 5.25027 208.424 5.6283C209.021 5.99639 209.483 6.48386 209.812 7.09071C210.14 7.69755 210.304 8.34917 210.304 9.04555C210.304 9.16493 210.299 9.27933 210.289 9.38876C210.279 9.48825 210.269 9.57281 210.259 9.64245H204.007C204.037 10.1001 204.161 10.503 204.38 10.8512C204.609 11.1894 204.897 11.458 205.245 11.657C205.594 11.846 205.967 11.9405 206.365 11.9405C206.802 11.9405 207.215 11.8311 207.603 11.6122C208.001 11.3933 208.27 11.1048 208.409 10.7467L209.812 11.1496C209.643 11.5277 209.384 11.8709 209.036 12.1793C208.698 12.4777 208.295 12.7165 207.827 12.8955C207.359 13.0647 206.852 13.1492 206.305 13.1492ZM203.962 8.55311H208.678C208.648 8.10543 208.518 7.71247 208.29 7.37423C208.071 7.02604 207.787 6.75744 207.439 6.56842C207.101 6.36945 206.723 6.26997 206.305 6.26997C205.897 6.26997 205.519 6.36945 205.171 6.56842C204.833 6.75744 204.554 7.02604 204.335 7.37423C204.116 7.71247 203.992 8.10543 203.962 8.55311ZM216.18 6.61319C215.543 6.62313 214.976 6.76739 214.478 7.04594C213.991 7.32449 213.643 7.71745 213.434 8.22481V13H211.792V5.19555H213.314V6.94148C213.583 6.40427 213.936 5.9765 214.374 5.65815C214.812 5.32985 215.274 5.15079 215.762 5.12094C215.861 5.12094 215.941 5.12094 216 5.12094C216.07 5.12094 216.13 5.12591 216.18 5.13586V6.61319ZM220.298 13.1492C219.642 13.1492 219.02 13.0448 218.433 12.8359C217.846 12.617 217.344 12.2937 216.926 11.8659L217.538 10.7616C217.985 11.1596 218.433 11.4481 218.881 11.6271C219.338 11.8062 219.791 11.8957 220.239 11.8957C220.696 11.8957 221.069 11.8112 221.358 11.6421C221.646 11.463 221.791 11.2043 221.791 10.8661C221.791 10.6174 221.716 10.4333 221.567 10.314C221.418 10.1946 221.199 10.0901 220.91 10.0006C220.632 9.91105 220.294 9.81157 219.896 9.70214C219.338 9.53301 218.871 9.35892 218.493 9.17985C218.115 8.99083 217.831 8.76202 217.642 8.49342C217.453 8.22481 217.359 7.8816 217.359 7.46377C217.359 6.9564 217.488 6.52365 217.747 6.16551C218.005 5.80737 218.364 5.5338 218.821 5.34478C219.289 5.15576 219.826 5.06125 220.433 5.06125C221 5.06125 221.522 5.15079 222 5.32986C222.487 5.49898 222.915 5.76758 223.283 6.13567L222.582 7.22501C222.233 6.90666 221.875 6.67288 221.507 6.52365C221.149 6.37443 220.761 6.29981 220.343 6.29981C220.104 6.29981 219.876 6.32966 219.657 6.38935C219.438 6.43909 219.254 6.53857 219.105 6.6878C218.965 6.82708 218.896 7.02604 218.896 7.2847C218.896 7.49361 218.955 7.66273 219.075 7.79206C219.194 7.92139 219.373 8.03082 219.612 8.12036C219.851 8.20989 220.144 8.30937 220.492 8.4188C221.099 8.59787 221.617 8.77694 222.044 8.95601C222.472 9.12513 222.8 9.34897 223.029 9.62752C223.268 9.89613 223.387 10.2692 223.387 10.7467C223.387 11.5028 223.104 12.0947 222.537 12.5225C221.98 12.9403 221.234 13.1492 220.298 13.1492ZM228.539 13.1492C227.932 13.1492 227.38 13.0448 226.882 12.8359C226.395 12.617 225.972 12.3235 225.614 11.9554C225.256 11.5774 224.977 11.1496 224.778 10.6721C224.589 10.1846 224.495 9.66732 224.495 9.12016C224.495 8.38399 224.664 7.71247 225.002 7.10563C225.34 6.48883 225.813 5.99639 226.42 5.6283C227.027 5.25027 227.738 5.06125 228.554 5.06125C229.37 5.06125 230.071 5.25027 230.658 5.6283C231.255 5.99639 231.717 6.48386 232.046 7.09071C232.374 7.69755 232.538 8.34917 232.538 9.04555C232.538 9.16493 232.533 9.27933 232.523 9.38876C232.513 9.48825 232.503 9.57281 232.493 9.64245H226.241C226.271 10.1001 226.395 10.503 226.614 10.8512C226.843 11.1894 227.131 11.458 227.479 11.657C227.828 11.846 228.201 11.9405 228.599 11.9405C229.036 11.9405 229.449 11.8311 229.837 11.6122C230.235 11.3933 230.504 11.1048 230.643 10.7467L232.046 11.1496C231.876 11.5277 231.618 11.8709 231.27 12.1793C230.931 12.4777 230.528 12.7165 230.061 12.8955C229.593 13.0647 229.086 13.1492 228.539 13.1492ZM226.196 8.55311H230.911C230.882 8.10543 230.752 7.71247 230.524 7.37423C230.305 7.02604 230.021 6.75744 229.673 6.56842C229.335 6.36945 228.957 6.26997 228.539 6.26997C228.131 6.26997 227.753 6.36945 227.405 6.56842C227.066 6.75744 226.788 7.02604 226.569 7.37423C226.35 7.71247 226.226 8.10543 226.196 8.55311Z" fill="#151B4C"/>
</svg>
