<svg width="131" height="19" viewBox="0 0 131 19" fill="none" xmlns="http://www.w3.org/2000/svg">
<path fill-rule="evenodd" clip-rule="evenodd" d="M88.3288 16.2632C86.3751 14.4211 85.3982 12.1579 85.3982 9.5C85.3982 6.8421 86.3751 4.60526 88.3288 2.76316C90.3096 0.921052 92.6975 0 95.4924 0C98.2873 0 100.675 0.921052 102.629 2.76316C104.61 4.60526 105.587 6.8421 105.587 9.5C105.587 12.1579 104.61 14.4211 102.656 16.2632C100.702 18.0789 98.3144 19 95.4924 19C92.6975 19 90.3096 18.0789 88.3288 16.2632ZM91.2865 5.39474C90.1468 6.52632 89.577 7.89474 89.577 9.5C89.577 11.1579 90.1468 12.5263 91.2865 13.6579C92.4261 14.7632 93.8371 15.3158 95.4924 15.3158C97.1476 15.3158 98.5315 14.7632 99.6711 13.6316C100.838 12.5 101.408 11.1053 101.408 9.5C101.408 7.89474 100.838 6.52632 99.6983 5.39474C98.5586 4.26316 97.1476 3.68421 95.4924 3.68421C93.8371 3.68421 92.4261 4.26316 91.2865 5.39474ZM67.7486 18.6316C67.9671 18.6316 68.1443 18.4598 68.1443 18.2478V9.09963C68.1443 8.76721 68.5504 8.59202 68.805 8.81464L80.1827 18.7643C80.4372 18.9869 80.8434 18.8117 80.8434 18.4793V0.673224C80.8434 0.461284 80.6662 0.289473 80.4477 0.289473H77.1146C76.8961 0.289473 76.7189 0.461284 76.7189 0.673224V9.84637C76.7189 10.179 76.3123 10.3541 76.0578 10.1311L64.6809 0.158414C64.4264 -0.0646349 64.0198 0.110471 64.0198 0.443102V18.2478C64.0198 18.4598 64.197 18.6316 64.4155 18.6316H67.7486ZM9.45908 18.2478C9.45908 18.4598 9.28191 18.6316 9.06337 18.6316H5.67604C5.45749 18.6316 5.28032 18.4598 5.28032 18.2478V9.41396C5.28032 9.19987 5.45388 9.02631 5.66798 9.02631L13.0137 9.02631C13.5836 9.02631 14.1534 8.8421 14.669 8.44737C15.1845 8.05263 15.4559 7.39474 15.4559 6.5C15.4559 5.60526 15.1845 4.97368 14.669 4.57895C14.1534 4.18421 13.5836 3.97368 13.0137 3.97368H5.76573L5.28032 3.9739V3.97311H3.16892C2.97785 3.97311 2.79629 3.88974 2.67177 3.74483L0.0629277 0.708882C-0.0810741 0.541305 0.037988 0.282009 0.258937 0.282009H6.38589C6.41963 0.282009 6.45277 0.284558 6.48513 0.289473H13.258C14.8589 0.289473 16.2971 0.868421 17.6267 2C18.9563 3.13158 19.6346 4.63158 19.6346 6.5C19.6346 8.28947 18.9834 9.76316 17.6809 10.9474C16.3785 12.1316 14.9132 12.7105 13.258 12.7105H9.8548C9.63625 12.7105 9.45908 12.8823 9.45908 13.0943V18.2478ZM27.8129 18.6316C28.0314 18.6316 28.2086 18.4598 28.2086 18.2478V11.1732C28.2086 10.9613 28.3858 10.7895 28.6043 10.7895H36.0076C36.2262 10.7895 36.4033 10.9613 36.4033 11.1732V18.2478C36.4033 18.4598 36.5805 18.6316 36.799 18.6316H40.1864C40.4049 18.6316 40.5821 18.4598 40.5821 18.2478V0.673224C40.5821 0.461285 40.4049 0.289473 40.1864 0.289473H36.799C36.5805 0.289473 36.4033 0.461284 36.4033 0.673224V6.72151C36.4033 6.93345 36.2262 7.10526 36.0076 7.10526H28.6043C28.3858 7.10526 28.2086 6.93345 28.2086 6.72151V0.673224C28.2086 0.461284 28.0314 0.289473 27.8129 0.289473H24.4256C24.207 0.289473 24.0298 0.461284 24.0298 0.673224V18.2478C24.0298 18.4598 24.207 18.6316 24.4256 18.6316H27.8129ZM58.7756 18.6316C58.9942 18.6316 59.1713 18.4598 59.1713 18.2478V15.3311C59.1713 15.1192 58.9942 14.9474 58.7756 14.9474H50.6397C50.4212 14.9474 50.244 14.7756 50.244 14.5636V11.4101C50.244 11.1981 50.4212 11.0263 50.6397 11.0263H58.0159C58.2344 11.0263 58.4116 10.8545 58.4116 10.6426V7.8048C58.4116 7.59286 58.2344 7.42105 58.0159 7.42105H50.6397C50.4212 7.42105 50.244 7.24924 50.244 7.0373V4.35743C50.244 4.14549 50.4212 3.97368 50.6397 3.97368H58.5857C58.8042 3.97368 58.9814 3.80187 58.9814 3.58993V0.673224C58.9814 0.461284 58.8042 0.289473 58.5857 0.289473H46.4609C46.2424 0.289473 46.0652 0.461284 46.0652 0.673224V18.2478C46.0652 18.4598 46.2424 18.6316 46.4609 18.6316H58.7756ZM113.778 18.6316C113.996 18.6316 114.173 18.4598 114.173 18.2478V10.3236C114.173 9.97097 114.623 9.80505 114.865 10.0684L119.848 15.494C120.005 15.6654 120.281 15.6654 120.439 15.494L125.422 10.0684C125.663 9.80505 126.113 9.97097 126.113 10.3236V18.2478C126.113 18.4598 126.29 18.6316 126.508 18.6316H129.733C129.952 18.6316 130.129 18.4598 130.129 18.2478V0.617339C130.129 0.267456 129.685 0.100088 129.441 0.357879L120.435 9.87609C120.278 10.0418 120.008 10.0418 119.852 9.87609L110.845 0.35788C110.601 0.100089 110.157 0.267458 110.157 0.617341V18.2478C110.157 18.4598 110.335 18.6316 110.553 18.6316H113.778Z" fill="#151B4C"/>
</svg>
