<svg width="76" height="12" viewBox="0 0 76 12" fill="none" xmlns="http://www.w3.org/2000/svg">
<path d="M12.834 11H11.1925V6.62772C11.1925 5.90149 11.0731 5.36926 10.8344 5.03102C10.5956 4.69277 10.2474 4.52365 9.7898 4.52365C9.33218 4.52365 8.9044 4.69775 8.50647 5.04594C8.11849 5.38418 7.84491 5.82688 7.68574 6.37404V11H6.04426V6.62772C6.04426 5.90149 5.92488 5.36926 5.68613 5.03102C5.44737 4.69277 5.10415 4.52365 4.65648 4.52365C4.19885 4.52365 3.77108 4.69277 3.37314 5.03102C2.98516 5.36926 2.70661 5.81196 2.53749 6.35911V11H0.896015V3.19555H2.38826V4.76241C2.69666 4.21525 3.09957 3.79743 3.59698 3.50892C4.10434 3.21048 4.68135 3.06125 5.32799 3.06125C5.97463 3.06125 6.48199 3.23037 6.85008 3.56861C7.22811 3.90686 7.4619 4.32966 7.55143 4.83702C7.88968 4.26002 8.30253 3.8223 8.79 3.52385C9.28741 3.21545 9.85447 3.06125 10.4912 3.06125C10.9488 3.06125 11.3318 3.14581 11.6402 3.31493C11.9486 3.48405 12.1873 3.71784 12.3565 4.01629C12.5256 4.30479 12.645 4.64303 12.7146 5.03102C12.7942 5.40905 12.834 5.81196 12.834 6.23973V11ZM18.4114 11.1492C17.8045 11.1492 17.2524 11.0448 16.755 10.8359C16.2675 10.617 15.8447 10.3235 15.4866 9.95543C15.1284 9.57739 14.8499 9.14961 14.6509 8.6721C14.4619 8.18463 14.3674 7.66732 14.3674 7.12016C14.3674 6.38399 14.5365 5.71247 14.8747 5.10563C15.213 4.48883 15.6855 3.99639 16.2924 3.6283C16.8992 3.25027 17.6105 3.06125 18.4263 3.06125C19.2421 3.06125 19.9434 3.25027 20.5304 3.6283C21.1273 3.99639 21.5899 4.48386 21.9181 5.09071C22.2464 5.69755 22.4106 6.34917 22.4106 7.04555C22.4106 7.16493 22.4056 7.27933 22.3957 7.38876C22.3857 7.48825 22.3758 7.57281 22.3658 7.64245H16.1133C16.1432 8.10007 16.2675 8.50297 16.4864 8.85117C16.7152 9.18941 17.0037 9.45801 17.3519 9.65698C17.7001 9.846 18.0731 9.94051 18.4711 9.94051C18.9088 9.94051 19.3216 9.83107 19.7096 9.61221C20.1076 9.39335 20.3762 9.10485 20.5154 8.74671L21.9181 9.14961C21.749 9.52765 21.4904 9.87087 21.1422 10.1793C20.8039 10.4777 20.401 10.7165 19.9335 10.8955C19.4659 11.0647 18.9585 11.1492 18.4114 11.1492ZM16.0685 6.55311H20.784C20.7542 6.10543 20.6249 5.71247 20.3961 5.37423C20.1772 5.02604 19.8937 4.75744 19.5455 4.56842C19.2072 4.36945 18.8292 4.26997 18.4114 4.26997C18.0035 4.26997 17.6255 4.36945 17.2773 4.56842C16.939 4.75744 16.6605 5.02604 16.4416 5.37423C16.2227 5.71247 16.0984 6.10543 16.0685 6.55311ZM28.1683 10.5971C28.0291 10.6667 27.855 10.7413 27.646 10.8209C27.4371 10.9005 27.1984 10.9702 26.9298 11.0298C26.6711 11.0895 26.4025 11.1194 26.124 11.1194C25.7857 11.1194 25.4723 11.0597 25.1838 10.9403C24.8953 10.8209 24.6615 10.6319 24.4825 10.3733C24.3134 10.1047 24.2288 9.76144 24.2288 9.34361V4.46396H23.1991V3.19555H24.2288V0.628889H25.8703V3.19555H27.5714V4.46396H25.8703V8.82132C25.8902 9.08992 25.9747 9.28889 26.124 9.41822C26.2831 9.54755 26.4771 9.61221 26.7059 9.61221C26.9347 9.61221 27.1536 9.57242 27.3625 9.49283C27.5714 9.41324 27.7256 9.34858 27.8251 9.29884L28.1683 10.5971ZM28.8874 8.71686C28.8874 8.21945 29.0267 7.7867 29.3052 7.41861C29.5937 7.04057 29.9867 6.75207 30.4841 6.55311C30.9815 6.34419 31.5585 6.23973 32.2151 6.23973C32.5633 6.23973 32.9165 6.26461 33.2746 6.31435C33.6427 6.36409 33.966 6.44368 34.2446 6.55311V6.06067C34.2446 5.51351 34.0804 5.08573 33.7521 4.77733C33.4238 4.46894 32.9513 4.31474 32.3345 4.31474C31.8968 4.31474 31.4839 4.39432 31.0959 4.5535C30.7079 4.70272 30.2951 4.91661 29.8574 5.19516L29.3052 4.0909C29.8225 3.74271 30.3399 3.48405 30.8572 3.31493C31.3844 3.14581 31.9366 3.06125 32.5136 3.06125C33.5581 3.06125 34.3789 3.3398 34.9758 3.89691C35.5826 4.44407 35.886 5.22501 35.886 6.23973V9.14961C35.886 9.33863 35.9159 9.47293 35.9756 9.55252C36.0452 9.63211 36.1596 9.67688 36.3188 9.68682V11C36.1696 11.0298 36.0353 11.0497 35.9159 11.0597C35.7965 11.0696 35.697 11.0746 35.6174 11.0746C35.2692 11.0746 35.0056 10.9901 34.8265 10.8209C34.6475 10.6518 34.543 10.4528 34.5132 10.224L34.4684 9.77636C34.1302 10.2141 33.6974 10.5523 33.1701 10.7911C32.6429 11.0298 32.1107 11.1492 31.5734 11.1492C31.0561 11.1492 30.5935 11.0448 30.1857 10.8359C29.7778 10.617 29.4594 10.3235 29.2306 9.95543C29.0018 9.58734 28.8874 9.17449 28.8874 8.71686ZM33.8566 9.19438C33.976 9.06505 34.0705 8.93573 34.1401 8.8064C34.2097 8.67707 34.2446 8.56266 34.2446 8.46318V7.56783C33.966 7.4584 33.6725 7.37882 33.3641 7.32907C33.0557 7.26938 32.7523 7.23954 32.4539 7.23954C31.857 7.23954 31.3695 7.35892 30.9915 7.59768C30.6234 7.83644 30.4393 8.16473 30.4393 8.58256C30.4393 8.81137 30.499 9.03024 30.6184 9.23915C30.7477 9.44806 30.9268 9.61719 31.1556 9.74651C31.3944 9.87584 31.6879 9.94051 32.036 9.94051C32.3942 9.94051 32.7374 9.87087 33.0657 9.73159C33.394 9.59231 33.6576 9.41324 33.8566 9.19438ZM39.9431 11L36.9735 3.19555H38.6747L40.8981 9.47791L43.1216 3.19555H44.7033L41.7338 11H39.9431ZM49.3049 11.1492C48.6981 11.1492 48.146 11.0448 47.6486 10.8359C47.1611 10.617 46.7383 10.3235 46.3801 9.95543C46.022 9.57739 45.7435 9.14961 45.5445 8.6721C45.3555 8.18463 45.261 7.66732 45.261 7.12016C45.261 6.38399 45.4301 5.71247 45.7683 5.10563C46.1066 4.48883 46.5791 3.99639 47.186 3.6283C47.7928 3.25027 48.5041 3.06125 49.3199 3.06125C50.1356 3.06125 50.837 3.25027 51.4239 3.6283C52.0208 3.99639 52.4834 4.48386 52.8117 5.09071C53.14 5.69755 53.3042 6.34917 53.3042 7.04555C53.3042 7.16493 53.2992 7.27933 53.2892 7.38876C53.2793 7.48825 53.2693 7.57281 53.2594 7.64245H47.0069C47.0367 8.10007 47.1611 8.50297 47.3799 8.85117C47.6088 9.18941 47.8973 9.45801 48.2455 9.65698C48.5936 9.846 48.9667 9.94051 49.3646 9.94051C49.8024 9.94051 50.2152 9.83107 50.6032 9.61221C51.0011 9.39335 51.2697 9.10485 51.409 8.74671L52.8117 9.14961C52.6426 9.52765 52.3839 9.87087 52.0358 10.1793C51.6975 10.4777 51.2946 10.7165 50.827 10.8955C50.3595 11.0647 49.8521 11.1492 49.3049 11.1492ZM46.9621 6.55311H51.6776C51.6478 6.10543 51.5184 5.71247 51.2896 5.37423C51.0708 5.02604 50.7872 4.75744 50.4391 4.56842C50.1008 4.36945 49.7228 4.26997 49.3049 4.26997C48.8971 4.26997 48.519 4.36945 48.1708 4.56842C47.8326 4.75744 47.554 5.02604 47.3352 5.37423C47.1163 5.71247 46.992 6.10543 46.9621 6.55311ZM59.1795 4.61319C58.5428 4.62313 57.9758 4.76739 57.4784 5.04594C56.9909 5.32449 56.6427 5.71745 56.4338 6.22481V11H54.7923V3.19555H56.3144V4.94148C56.583 4.40427 56.9362 3.9765 57.3739 3.65815C57.8116 3.32985 58.2742 3.15079 58.7617 3.12094C58.8612 3.12094 58.9408 3.12094 59.0005 3.12094C59.0701 3.12094 59.1298 3.12591 59.1795 3.13586V4.61319ZM63.2985 11.1492C62.6419 11.1492 62.0201 11.0448 61.4332 10.8359C60.8462 10.617 60.3438 10.2937 59.926 9.86589L60.5378 8.76163C60.9855 9.15956 61.4332 9.44806 61.8808 9.62713C62.3385 9.8062 62.7911 9.89574 63.2388 9.89574C63.6964 9.89574 64.0695 9.81118 64.358 9.64206C64.6465 9.46299 64.7907 9.20433 64.7907 8.86609C64.7907 8.61738 64.7161 8.43334 64.5669 8.31396C64.4177 8.19458 64.1988 8.09012 63.9103 8.00059C63.6317 7.91105 63.2935 7.81157 62.8956 7.70214C62.3385 7.53301 61.8709 7.35892 61.4929 7.17985C61.1148 6.99083 60.8313 6.76202 60.6423 6.49342C60.4533 6.22481 60.3588 5.8816 60.3588 5.46377C60.3588 4.9564 60.4881 4.52365 60.7467 4.16551C61.0054 3.80737 61.3635 3.5338 61.8212 3.34478C62.2887 3.15576 62.8259 3.06125 63.4328 3.06125C63.9998 3.06125 64.5221 3.15079 64.9996 3.32986C65.4871 3.49898 65.9149 3.76758 66.283 4.13567L65.5816 5.22501C65.2334 4.90666 64.8753 4.67288 64.5072 4.52365C64.1491 4.37443 63.7611 4.29981 63.3432 4.29981C63.1045 4.29981 62.8757 4.32966 62.6568 4.38935C62.438 4.43909 62.2539 4.53857 62.1047 4.6878C61.9654 4.82708 61.8958 5.02604 61.8958 5.2847C61.8958 5.49361 61.9555 5.66273 62.0748 5.79206C62.1942 5.92139 62.3733 6.03082 62.612 6.12036C62.8508 6.20989 63.1443 6.30937 63.4925 6.4188C64.0993 6.59787 64.6166 6.77694 65.0444 6.95601C65.4722 7.12513 65.8005 7.34897 66.0293 7.62752C66.2681 7.89613 66.3874 8.26919 66.3874 8.74671C66.3874 9.50278 66.1039 10.0947 65.5369 10.5225C64.9797 10.9403 64.2336 11.1492 63.2985 11.1492ZM71.5388 11.1492C70.932 11.1492 70.3798 11.0448 69.8824 10.8359C69.395 10.617 68.9722 10.3235 68.614 9.95543C68.2559 9.57739 67.9773 9.14961 67.7784 8.6721C67.5893 8.18463 67.4948 7.66732 67.4948 7.12016C67.4948 6.38399 67.664 5.71247 68.0022 5.10563C68.3404 4.48883 68.813 3.99639 69.4198 3.6283C70.0267 3.25027 70.738 3.06125 71.5537 3.06125C72.3695 3.06125 73.0709 3.25027 73.6578 3.6283C74.2547 3.99639 74.7173 4.48386 75.0456 5.09071C75.3739 5.69755 75.538 6.34917 75.538 7.04555C75.538 7.16493 75.5331 7.27933 75.5231 7.38876C75.5132 7.48825 75.5032 7.57281 75.4933 7.64245H69.2408C69.2706 8.10007 69.395 8.50297 69.6138 8.85117C69.8426 9.18941 70.1311 9.45801 70.4793 9.65698C70.8275 9.846 71.2006 9.94051 71.5985 9.94051C72.0362 9.94051 72.4491 9.83107 72.8371 9.61221C73.235 9.39335 73.5036 9.10485 73.6429 8.74671L75.0456 9.14961C74.8765 9.52765 74.6178 9.87087 74.2696 10.1793C73.9314 10.4777 73.5285 10.7165 73.0609 10.8955C72.5933 11.0647 72.086 11.1492 71.5388 11.1492ZM69.196 6.55311H73.9115C73.8817 6.10543 73.7523 5.71247 73.5235 5.37423C73.3046 5.02604 73.0211 4.75744 72.6729 4.56842C72.3347 4.36945 71.9567 4.26997 71.5388 4.26997C71.1309 4.26997 70.7529 4.36945 70.4047 4.56842C70.0665 4.75744 69.7879 5.02604 69.5691 5.37423C69.3502 5.71247 69.2258 6.10543 69.196 6.55311Z" fill="#151B4C"/>
</svg>
