<svg width="14" height="14" viewBox="0 0 14 14" fill="none" xmlns="http://www.w3.org/2000/svg">
<path fill-rule="evenodd" clip-rule="evenodd" d="M10.3497 5.89892L8.1039 3.65309L9.72723 2.02892L11.9722 4.27392L10.3497 5.89892ZM4.56723 11.6873L2.0864 11.9131L2.3064 9.44975L6.98723 4.76892L9.2339 7.01559L4.56723 11.6873ZM13.1706 3.11475L13.1697 3.11392L10.8881 0.832254C10.2706 0.216421 9.20973 0.187254 8.62473 0.774754L1.12806 8.27142C0.856398 8.54225 0.688064 8.90225 0.653064 9.28309L0.337231 12.7581C0.315564 13.0039 0.403064 13.2473 0.578064 13.4223C0.735564 13.5798 0.948065 13.6664 1.16723 13.6664C1.19306 13.6664 1.21806 13.6656 1.24306 13.6631L4.71807 13.3473C5.09973 13.3123 5.4589 13.1448 5.72973 12.8739L13.2272 5.37642C13.8339 4.76809 13.8081 3.75309 13.1706 3.11475Z" fill="#222B45"/>
</svg>
