<svg width="16" height="16" viewBox="0 0 16 16" fill="none" xmlns="http://www.w3.org/2000/svg">
<path fill-rule="evenodd" clip-rule="evenodd" d="M14.2225 7.11115H8.88916V1.77782C8.88916 1.28626 8.49094 0.888931 8.00027 0.888931C7.5096 0.888931 7.11138 1.28626 7.11138 1.77782V7.11115H1.77805C1.28738 7.11115 0.88916 7.50849 0.88916 8.00004C0.88916 8.4916 1.28738 8.88893 1.77805 8.88893H7.11138V14.2223C7.11138 14.7138 7.5096 15.1112 8.00027 15.1112C8.49094 15.1112 8.88916 14.7138 8.88916 14.2223V8.88893H14.2225C14.7132 8.88893 15.1114 8.4916 15.1114 8.00004C15.1114 7.50849 14.7132 7.11115 14.2225 7.11115Z" fill="#151B4C"/>
</svg>
