<svg width="36" height="36" viewBox="0 0 36 36" fill="none" xmlns="http://www.w3.org/2000/svg">
<circle cx="18" cy="18" r="18" fill="white" fill-opacity="0.6"/>
<path fill-rule="evenodd" clip-rule="evenodd" d="M26.303 19.4258C25.777 19.2588 25.215 19.5498 25.047 20.0758C24.11 23.0218 21.352 24.9998 18.184 24.9998C14.222 24.9998 11 21.8598 11 17.9998C11 14.1408 14.222 10.9998 18.184 10.9998C19.912 10.9998 21.542 11.6018 22.829 12.6698L20.663 12.3128C20.113 12.2128 19.603 12.5918 19.513 13.1358C19.423 13.6808 19.792 14.1958 20.337 14.2848L24.583 14.9868C24.638 14.9958 24.694 14.9998 24.747 14.9998C24.866 14.9998 24.982 14.9788 25.09 14.9388C25.127 14.9248 25.157 14.8988 25.193 14.8798C25.259 14.8458 25.328 14.8158 25.385 14.7678C25.421 14.7388 25.444 14.6968 25.475 14.6628C25.522 14.6138 25.572 14.5668 25.607 14.5068C25.632 14.4638 25.642 14.4128 25.661 14.3648C25.685 14.3058 25.717 14.2508 25.729 14.1858L26.483 10.1858C26.585 9.64276 26.228 9.11876 25.685 9.01776C25.144 8.91976 24.619 9.27276 24.517 9.81476L24.245 11.2558C22.581 9.81476 20.448 8.99976 18.184 8.99976C13.12 8.99976 9 13.0368 9 17.9998C9 22.9628 13.12 26.9998 18.184 26.9998C22.226 26.9998 25.75 24.4608 26.953 20.6818C27.12 20.1558 26.829 19.5938 26.303 19.4258Z" fill="#151B4C"/>
<mask id="mask0_758_15564" style="mask-type:alpha" maskUnits="userSpaceOnUse" x="9" y="8" width="18" height="19">
<path fill-rule="evenodd" clip-rule="evenodd" d="M26.303 19.4258C25.777 19.2588 25.215 19.5498 25.047 20.0758C24.11 23.0218 21.352 24.9998 18.184 24.9998C14.222 24.9998 11 21.8598 11 17.9998C11 14.1408 14.222 10.9998 18.184 10.9998C19.912 10.9998 21.542 11.6018 22.829 12.6698L20.663 12.3128C20.113 12.2128 19.603 12.5918 19.513 13.1358C19.423 13.6808 19.792 14.1958 20.337 14.2848L24.583 14.9868C24.638 14.9958 24.694 14.9998 24.747 14.9998C24.866 14.9998 24.982 14.9788 25.09 14.9388C25.127 14.9248 25.157 14.8988 25.193 14.8798C25.259 14.8458 25.328 14.8158 25.385 14.7678C25.421 14.7388 25.444 14.6968 25.475 14.6628C25.522 14.6138 25.572 14.5668 25.607 14.5068C25.632 14.4638 25.642 14.4128 25.661 14.3648C25.685 14.3058 25.717 14.2508 25.729 14.1858L26.483 10.1858C26.585 9.64276 26.228 9.11876 25.685 9.01776C25.144 8.91976 24.619 9.27276 24.517 9.81476L24.245 11.2558C22.581 9.81476 20.448 8.99976 18.184 8.99976C13.12 8.99976 9 13.0368 9 17.9998C9 22.9628 13.12 26.9998 18.184 26.9998C22.226 26.9998 25.75 24.4608 26.953 20.6818C27.12 20.1558 26.829 19.5938 26.303 19.4258Z" fill="white"/>
</mask>
<g mask="url(#mask0_758_15564)">
</g>
</svg>
