<svg width="32" height="32" viewBox="0 0 32 32" fill="none" xmlns="http://www.w3.org/2000/svg">
<circle cx="16" cy="16" r="16" fill="white"/>
<path fill-rule="evenodd" clip-rule="evenodd" d="M22.223 16.8893H9.77854C9.28787 16.8893 8.88965 16.492 8.88965 16.0005C8.88965 15.5089 9.28787 15.1116 9.77854 15.1116H22.223C22.7145 15.1116 23.1119 15.5089 23.1119 16.0005C23.1119 16.492 22.7145 16.8893 22.223 16.8893Z" fill="#151B4C"/>
<mask id="mask0_225_12001" style="mask-type:alpha" maskUnits="userSpaceOnUse" x="8" y="15" width="16" height="2">
<path fill-rule="evenodd" clip-rule="evenodd" d="M22.223 16.8893H9.77854C9.28787 16.8893 8.88965 16.492 8.88965 16.0005C8.88965 15.5089 9.28787 15.1116 9.77854 15.1116H22.223C22.7145 15.1116 23.1119 15.5089 23.1119 16.0005C23.1119 16.492 22.7145 16.8893 22.223 16.8893Z" fill="white"/>
</mask>
<g mask="url(#mask0_225_12001)">
</g>
</svg>
