<svg width="20" height="20" viewBox="0 0 20 20" fill="none" xmlns="http://www.w3.org/2000/svg">
<path fill-rule="evenodd" clip-rule="evenodd" d="M14.1667 6.66699H3.33335C2.87335 6.66699 2.50002 6.29449 2.50002 5.83365C2.50002 5.37282 2.87335 5.00032 3.33335 5.00032H14.235L12.9367 3.99199C12.5734 3.70949 12.5075 3.18532 12.79 2.82282C13.0725 2.45865 13.5967 2.39282 13.9592 2.67532L17.1775 5.17532C17.3834 5.33449 17.5017 5.58032 17.5 5.84115C17.4984 6.10032 17.375 6.34449 17.1667 6.50032L13.8334 9.00032C13.6834 9.11282 13.5075 9.16699 13.3342 9.16699C13.0809 9.16699 12.83 9.05199 12.6667 8.83365C12.3909 8.46532 12.465 7.94282 12.8334 7.66699L14.1667 6.66699ZM5.83335 12.5003H16.6667C17.1267 12.5003 17.5 12.8728 17.5 13.3337C17.5 13.7945 17.1267 14.167 16.6667 14.167H5.76502L7.06335 15.1753C7.42668 15.4578 7.49252 15.982 7.21002 16.3445C7.04585 16.5562 6.80002 16.667 6.55168 16.667C6.37252 16.667 6.19252 16.6103 6.04085 16.492L2.82252 13.992C2.61668 13.8328 2.49835 13.587 2.50002 13.3262C2.50168 13.067 2.62502 12.8228 2.83335 12.667L6.16668 10.167C6.53585 9.89115 7.05752 9.96532 7.33335 10.3337C7.60918 10.702 7.53502 11.2245 7.16668 11.5003L5.83335 12.5003Z" fill="white"/>
<mask id="mask0_277_22071" style="mask-type:alpha" maskUnits="userSpaceOnUse" x="2" y="2" width="16" height="15">
<path fill-rule="evenodd" clip-rule="evenodd" d="M14.1667 6.66699H3.33335C2.87335 6.66699 2.50002 6.29449 2.50002 5.83365C2.50002 5.37282 2.87335 5.00032 3.33335 5.00032H14.235L12.9367 3.99199C12.5734 3.70949 12.5075 3.18532 12.79 2.82282C13.0725 2.45865 13.5967 2.39282 13.9592 2.67532L17.1775 5.17532C17.3834 5.33449 17.5017 5.58032 17.5 5.84115C17.4984 6.10032 17.375 6.34449 17.1667 6.50032L13.8334 9.00032C13.6834 9.11282 13.5075 9.16699 13.3342 9.16699C13.0809 9.16699 12.83 9.05199 12.6667 8.83365C12.3909 8.46532 12.465 7.94282 12.8334 7.66699L14.1667 6.66699ZM5.83335 12.5003H16.6667C17.1267 12.5003 17.5 12.8728 17.5 13.3337C17.5 13.7945 17.1267 14.167 16.6667 14.167H5.76502L7.06335 15.1753C7.42668 15.4578 7.49252 15.982 7.21002 16.3445C7.04585 16.5562 6.80002 16.667 6.55168 16.667C6.37252 16.667 6.19252 16.6103 6.04085 16.492L2.82252 13.992C2.61668 13.8328 2.49835 13.587 2.50002 13.3262C2.50168 13.067 2.62502 12.8228 2.83335 12.667L6.16668 10.167C6.53585 9.89115 7.05752 9.96532 7.33335 10.3337C7.60918 10.702 7.53502 11.2245 7.16668 11.5003L5.83335 12.5003Z" fill="white"/>
</mask>
<g mask="url(#mask0_277_22071)">
</g>
</svg>
