<svg width="27" height="22" viewBox="0 0 27 22" fill="none" xmlns="http://www.w3.org/2000/svg">
<path d="M1 20.5C0.723858 20.5 0.5 20.7239 0.5 21C0.5 21.2761 0.723858 21.5 1 21.5V20.5ZM23.2859 0.646447C23.0906 0.451184 22.774 0.451184 22.5788 0.646447L19.3968 3.82843C19.2015 4.02369 19.2015 4.34027 19.3968 4.53553C19.592 4.7308 19.9086 4.7308 20.1039 4.53553L22.9323 1.70711L25.7607 4.53553C25.956 4.7308 26.2726 4.7308 26.4678 4.53553C26.6631 4.34027 26.6631 4.02369 26.4678 3.82843L23.2859 0.646447ZM1 21.5C8.5688 21.5 14.1969 19.7346 17.9327 16.2402C21.6748 12.7398 23.4323 7.58563 23.4323 1H22.4323C22.4323 7.41437 20.7236 12.2602 17.2496 15.5098C13.7693 18.7654 8.4312 20.5 1 20.5V21.5Z" fill="#8F90A6"/>
</svg>
