<?xml version="1.0" standalone="no"?>
<!DOCTYPE svg PUBLIC "-//W3C//DTD SVG 20010904//EN"
 "http://www.w3.org/TR/2001/REC-SVG-20010904/DTD/svg10.dtd">
<svg version="1.0" xmlns="http://www.w3.org/2000/svg"
 width="400.000000pt" height="400.000000pt" viewBox="0 0 400.000000 400.000000"
 preserveAspectRatio="xMidYMid meet">
<metadata>
Created by potrace 1.14, written by Peter Selinger 2001-2017
</metadata>
<g transform="translate(0.000000,400.000000) scale(0.100000,-0.100000)"
fill="#000000" stroke="none">
<path d="M17 3842 c-9 -10 -17 -26 -17 -34 0 -13 78 -120 100 -138 4 -3 35
-39 70 -80 35 -41 67 -77 70 -80 3 -3 30 -34 60 -70 30 -36 57 -67 60 -70 3
-3 46 -52 95 -110 100 -117 110 -127 143 -140 14 -6 427 -10 1071 -10 922 0
1055 -2 1102 -16 71 -21 169 -64 169 -75 0 -5 6 -9 13 -9 19 0 103 -87 132
-136 43 -74 64 -174 60 -299 -6 -249 -104 -386 -340 -471 -47 -17 -106 -18
-851 -19 -441 -1 -812 -5 -825 -8 -57 -14 -55 19 -54 -981 l1 -918 27 -24 28
-24 364 0 c249 0 372 4 389 11 13 7 29 23 35 38 6 16 10 223 9 559 -1 566 0
574 46 588 12 4 214 8 451 9 236 2 441 5 455 9 13 3 42 8 63 11 22 4 78 18
125 31 399 116 761 454 871 815 46 149 56 221 56 404 -1 175 -10 247 -52 380
-81 257 -246 467 -503 640 -147 99 -342 182 -485 209 -17 3 -55 9 -85 15 -34
6 -590 10 -1446 10 -1341 1 -1391 1 -1407 -17z"/>
</g>
</svg>
