<svg width="16" height="16" viewBox="0 0 16 16" fill="none" xmlns="http://www.w3.org/2000/svg">
<path fill-rule="evenodd" clip-rule="evenodd" d="M12.668 12H3.33464C2.9673 12 2.66797 11.7013 2.66797 11.3333V4.83334L7.6013 8.53334C7.71997 8.62268 7.86064 8.66668 8.0013 8.66668C8.14197 8.66668 8.28264 8.62268 8.4013 8.53334L13.3346 4.83334V11.3333C13.3346 11.7013 13.0353 12 12.668 12ZM12.2233 4L8.0013 7.16667L3.7793 4H12.2233ZM12.6673 2.66667H3.33398C2.23132 2.66667 1.33398 3.56401 1.33398 4.66667V11.3333C1.33398 12.436 2.23132 13.3333 3.33398 13.3333H12.6673C13.77 13.3333 14.6673 12.436 14.6673 11.3333V4.66667C14.6673 3.56401 13.77 2.66667 12.6673 2.66667Z" fill="currentColor"/>
<mask id="mask0_128_10088" style="mask-type:alpha" maskUnits="userSpaceOnUse" x="1" y="2" width="14" height="12">
<path fill-rule="evenodd" clip-rule="evenodd" d="M12.668 12H3.33464C2.9673 12 2.66797 11.7013 2.66797 11.3333V4.83334L7.6013 8.53334C7.71997 8.62268 7.86064 8.66668 8.0013 8.66668C8.14197 8.66668 8.28264 8.62268 8.4013 8.53334L13.3346 4.83334V11.3333C13.3346 11.7013 13.0353 12 12.668 12ZM12.2233 4L8.0013 7.16667L3.7793 4H12.2233ZM12.6673 2.66667H3.33398C2.23132 2.66667 1.33398 3.56401 1.33398 4.66667V11.3333C1.33398 12.436 2.23132 13.3333 3.33398 13.3333H12.6673C13.77 13.3333 14.6673 12.436 14.6673 11.3333V4.66667C14.6673 3.56401 13.77 2.66667 12.6673 2.66667Z" fill="currentColor"/>
</mask>
<g mask="url(#mask0_128_10088)">
</g>
</svg>
