<svg width="16" height="16" viewBox="0 0 16 16" fill="none" xmlns="http://www.w3.org/2000/svg">
<path fill-rule="evenodd" clip-rule="evenodd" d="M8.00065 6.16668C6.98813 6.16668 6.16732 6.98749 6.16732 8.00001C6.16732 9.01253 6.98813 9.83334 8.00065 9.83334C9.01317 9.83334 9.83398 9.01253 9.83398 8.00001C9.83398 6.98749 9.01317 6.16668 8.00065 6.16668ZM4.83398 8.00001C4.83398 6.25111 6.25175 4.83334 8.00065 4.83334C9.74955 4.83334 11.1673 6.25111 11.1673 8.00001C11.1673 9.74891 9.74955 11.1667 8.00065 11.1667C6.25175 11.1667 4.83398 9.74891 4.83398 8.00001Z" fill="currentColor"/>
<path fill-rule="evenodd" clip-rule="evenodd" d="M5.25065 2.91668C3.96199 2.91668 2.91732 3.96135 2.91732 5.25001V10.75C2.91732 12.0387 3.96199 13.0833 5.25065 13.0833H10.7507C12.0393 13.0833 13.084 12.0387 13.084 10.75V5.25001C13.084 3.96135 12.0393 2.91668 10.7507 2.91668H5.25065ZM1.58398 5.25001C1.58398 3.22497 3.22561 1.58334 5.25065 1.58334H10.7507C12.7757 1.58334 14.4173 3.22497 14.4173 5.25001V10.75C14.4173 12.7751 12.7757 14.4167 10.7507 14.4167H5.25065C3.22561 14.4167 1.58398 12.7751 1.58398 10.75V5.25001Z" fill="currentColor"/>
<path d="M11.25 5.5C11.6642 5.5 12 5.16421 12 4.75C12 4.33579 11.6642 4 11.25 4C10.8358 4 10.5 4.33579 10.5 4.75C10.5 5.16421 10.8358 5.5 11.25 5.5Z" fill="currentColor"/>
</svg>
