<svg width="16" height="16" viewBox="0 0 16 16" fill="none" xmlns="http://www.w3.org/2000/svg">
<path fill-rule="evenodd" clip-rule="evenodd" d="M8.00065 2.66666C5.05513 2.66666 2.66732 5.05448 2.66732 8C2.66732 10.9455 5.05513 13.3333 8.00065 13.3333C10.9462 13.3333 13.334 10.9455 13.334 8C13.334 5.05448 10.9462 2.66666 8.00065 2.66666ZM1.33398 8C1.33398 4.3181 4.31875 1.33333 8.00065 1.33333C11.6825 1.33333 14.6673 4.3181 14.6673 8C14.6673 11.6819 11.6825 14.6667 8.00065 14.6667C4.31875 14.6667 1.33398 11.6819 1.33398 8Z" fill="currentColor"/>
<path fill-rule="evenodd" clip-rule="evenodd" d="M7.73579 7.77624C7.956 7.65342 8.21007 7.60524 8.45995 7.63892L8.37765 8.24947L8.45995 7.63892L9.88612 7.83117L9.79705 8.49186L9.88612 7.83117C10.0476 7.85294 10.2027 7.90828 10.3415 7.99363C10.3415 7.99363 10.3415 7.99363 10.3415 7.99363L13.7344 10.0804C14.048 10.2733 14.1458 10.6839 13.953 10.9975C13.7601 11.3111 13.3495 11.409 13.0358 11.2161L9.67301 9.14784L8.40552 8.97698L7.64486 10.6838L8.74529 11.874C8.86958 12.0085 8.96049 12.1703 9.01066 12.3464C9.06082 12.5224 9.06885 12.7079 9.03407 12.8876L8.79474 14.1249C8.72481 14.4864 8.37508 14.7227 8.01359 14.6528C7.6521 14.5829 7.41574 14.2332 7.48567 13.8717L7.70898 12.7172L6.59127 11.5083L7.05965 11.0752L6.59127 11.5083C6.43633 11.3407 6.33395 11.1313 6.29681 10.9062C6.25966 10.681 6.28938 10.4498 6.38229 10.2414C6.38229 10.2414 6.38229 10.2414 6.38229 10.2414L7.23846 8.32022L7.84739 8.5916L7.23846 8.32022C7.3411 8.08992 7.51559 7.89906 7.73579 7.77624ZM7.76626 12.7792C7.76621 12.7791 7.76616 12.7791 7.76611 12.779L7.76626 12.7792Z" fill="currentColor"/>
<path fill-rule="evenodd" clip-rule="evenodd" d="M4.31976 2.86137C4.65887 3.00478 4.81752 3.39594 4.67411 3.73506L4.14097 4.99573L4.80387 6.76496L6.05416 7.03368C6.22757 7.07095 6.3902 7.14727 6.52969 7.25684C6.66917 7.36641 6.78184 7.50634 6.85912 7.66599L6.85912 7.66599L7.05144 8.06331H7.78649C8.15468 8.06331 8.45316 8.36179 8.45316 8.72998C8.45316 9.09817 8.15468 9.39664 7.78649 9.39664H6.94695C6.72775 9.39664 6.51297 9.33489 6.32725 9.21845C6.14152 9.10201 5.99235 8.9356 5.89685 8.73829L6.48498 8.4536L5.89684 8.73829L5.69444 8.32015L4.43462 8.04938C4.2434 8.00828 4.06559 7.91977 3.91752 7.79199C3.76946 7.6642 3.65589 7.50125 3.58727 7.3181L2.86909 5.40134C2.76433 5.12173 2.77076 4.81259 2.88706 4.53758L3.44607 3.21572C3.58948 2.87661 3.98065 2.71796 4.31976 2.86137Z" fill="currentColor"/>
<path fill-rule="evenodd" clip-rule="evenodd" d="M9.20354 1.61467C9.52502 1.4352 9.93113 1.55031 10.1106 1.87179L10.694 2.91669C10.8226 3.14718 10.8694 3.41449 10.8265 3.67495C10.7836 3.93541 10.6536 4.17363 10.4578 4.35069L8.77592 5.87179L8.77591 5.87179C8.70931 5.93202 8.63598 5.98437 8.55736 6.02778L8.55736 6.02778L7.79225 6.45031C7.61957 6.54567 7.42552 6.59569 7.22826 6.59569H6.00481L5.52732 7.72924C5.38438 8.06856 4.99344 8.22775 4.65413 8.08482C4.31482 7.94189 4.15562 7.55095 4.29855 7.21164L4.819 5.97612C4.90812 5.76456 5.05766 5.584 5.24891 5.45704C5.44016 5.33008 5.66461 5.26235 5.89417 5.26235H7.1853L7.89589 4.86994L9.46509 3.45079L8.94642 2.52175C8.76694 2.20026 8.88206 1.79415 9.20354 1.61467Z" fill="currentColor"/>
</svg>
